<svg width="100" height="100" viewBox="0 0 100 100" fill="none" xmlns="http://www.w3.org/2000/svg">
<rect width="100" height="100" fill="#E60012"/>
<path d="M7.7 35.305L10.13 33.28C13.1 35.215 16.475 38.14 18.095 40.3L15.395 42.55C13.955 40.345 10.58 37.33 7.7 35.305ZM16.79 49.975V64.42C18.905 67.705 22.865 69.28 28.085 69.46C32.99 69.685 43.07 69.55 48.425 69.19C48.02 69.955 47.435 71.575 47.3 72.61C42.395 72.835 33.08 72.925 28.085 72.745C22.19 72.52 18.14 70.9 15.26 67.345C13.1 69.28 10.805 71.215 8.375 73.24L6.62 69.775C8.645 68.38 11.255 66.49 13.505 64.6V53.125H7.205V49.975H16.79ZM24.35 46.24V52H31.415V46.24H24.35ZM34.7 46.24V52H42.17V46.24H34.7ZM31.415 32.245H34.7V36.88H47.525V39.805H34.7V43.54H45.455V54.7H36.23C39.065 58.345 43.745 61.945 47.75 63.7C46.985 64.33 45.95 65.5 45.455 66.31C41.81 64.375 37.625 60.73 34.7 56.995V67.795H31.415V56.815C28.625 60.82 24.53 64.465 20.66 66.445C20.21 65.635 19.22 64.51 18.5 63.88C22.595 62.125 27.005 58.48 29.615 54.7H21.2V43.54H31.415V39.805H19.31V36.88H31.415V32.245ZM76.46 52.36V71.305C78.89 69.73 80.96 67.615 82.715 65.185C80.195 61.495 78.215 57.085 76.82 52.36H76.46ZM73.355 34.27H90.95V42.955C90.95 44.62 90.635 45.565 89.24 46.06C87.845 46.555 85.595 46.555 82.085 46.555C81.95 45.655 81.5 44.485 81.05 43.585C83.885 43.675 86.225 43.675 86.9 43.63C87.665 43.585 87.8 43.45 87.8 42.955V37.33H76.46V49.57H89.33L89.915 49.435L92.03 50.2C91.04 55.6 89.24 60.775 86.54 65.095C88.655 67.57 91.04 69.55 93.74 70.855C92.975 71.485 91.94 72.745 91.4 73.6C88.88 72.205 86.63 70.225 84.695 67.84C82.94 70.135 80.915 72.115 78.62 73.69C78.125 72.97 77.18 72.025 76.46 71.485V73.645H73.355V34.27ZM79.7 52.36C80.87 55.96 82.445 59.38 84.515 62.395C86.27 59.29 87.575 55.825 88.34 52.36H79.7ZM54.995 47.725L57.065 47.185H51.89V44.26H60.395V39.715H53.465V36.835H60.395V32.245H63.545V36.835H70.16V39.715H63.545V44.26H71.915V47.185H67.19L69.395 47.725C68.54 49.795 67.685 52 66.875 53.575H71.33V56.5H63.545V61.405H70.745V64.33H63.545V73.51H60.395V64.33H52.97V61.405H60.395V56.5H52.52V53.575H56.93C56.66 51.955 55.895 49.57 54.995 47.725ZM66.425 47.185H57.65C58.64 49.075 59.495 51.595 59.675 53.08L58.01 53.575H65.975L64.265 53.08C64.985 51.46 65.975 48.94 66.425 47.185Z" fill="white"/>
</svg>
